<?xml version="1.0" encoding="UTF-8" standalone="no"?>
<svg width="22px" height="18px" viewBox="0 0 22 18" version="1.1" xmlns="http://www.w3.org/2000/svg" xmlns:xlink="http://www.w3.org/1999/xlink">
    <!-- Generator: Sketch 50.2 (55047) - http://www.bohemiancoding.com/sketch -->
    <title>Twitter Copy-color</title>
    <desc>Created with Sketch.</desc>
    <defs></defs>
    <g id="Page-1" stroke="none" stroke-width="1" fill="none" fill-rule="evenodd">
        <g id="Desktop-HD-Copy-18" transform="translate(-295.000000, -558.000000)" fill="#B5B5B5">
            <path d="M317,560.130878 C316.191642,560.492308 315.321301,560.736728 314.408347,560.845937 C315.34067,560.28429 316.056054,559.393716 316.393086,558.332828 C315.520162,558.852871 314.555556,559.231203 313.525092,559.43402 C312.703821,558.551246 311.530023,558 310.230968,558 C307.740036,558 305.719141,560.03467 305.719141,562.543879 C305.719141,562.900108 305.75788,563.245937 305.835358,563.578765 C302.084111,563.388949 298.758995,561.581798 296.53149,558.829469 C296.142807,559.502925 295.920702,560.28429 295.920702,561.11636 C295.920702,562.692091 296.717439,564.083207 297.928685,564.898375 C297.190057,564.876273 296.492751,564.669556 295.883254,564.331528 L295.883254,564.387432 C295.883254,566.589816 297.439279,568.426869 299.505371,568.842904 C299.127018,568.949512 298.728004,569.002817 298.316077,569.002817 C298.025533,569.002817 297.741445,568.975515 297.466397,568.92221 C298.041028,570.726761 299.706815,572.04117 301.682515,572.076273 C300.138111,573.295775 298.19082,574.022535 296.07695,574.022535 C295.712802,574.022535 295.352527,574.001733 295,573.96013 C296.997652,575.247237 299.371075,576 301.918824,576 C310.221929,576 314.760873,569.076923 314.760873,563.071723 C314.760873,562.874106 314.756999,562.67649 314.749252,562.482774 C315.631214,561.84182 316.39696,561.042254 317,560.130878" id="Twitter-Copy"></path>
        </g>
    </g>
</svg>