<?xml version="1.0" encoding="UTF-8" standalone="no"?>
<svg width="27px" height="17px" viewBox="0 0 27 17" version="1.1" xmlns="http://www.w3.org/2000/svg" xmlns:xlink="http://www.w3.org/1999/xlink">
    <!-- Generator: Sketch 50.2 (55047) - http://www.bohemiancoding.com/sketch -->
    <title>behance-logo</title>
    <desc>Created with Sketch.</desc>
    <defs></defs>
    <g id="Page-1" stroke="none" stroke-width="1" fill="none" fill-rule="evenodd">
        <g id="Desktop-HD-Copy-18" transform="translate(-336.000000, -559.000000)" fill="#B5B5B5" fill-rule="nonzero">
            <g id="behance-logo" transform="translate(336.000000, 559.000000)">
                <path d="M24.3829365,2.40571311 L17.6177312,2.40571311 L17.6177312,0.705268468 L24.3835014,0.705268468 L24.3835014,2.40571311 L24.3829365,2.40571311 Z M13.1139762,9.37867952 C13.5504978,10.0628592 13.768633,10.8935807 13.768633,11.8688749 C13.768633,12.8774539 13.5226895,13.7822404 13.0223281,14.5814557 C12.7040076,15.1103277 12.3087905,15.5570676 11.8339148,15.9167208 C11.2990911,16.3326533 10.6659026,16.6178605 9.93799005,16.7702462 C9.2077549,16.9228861 8.41738348,17 7.56599696,17 L0,17 L0,0 L8.11337515,0 C10.1584479,0.033665882 11.6083096,0.633236184 12.4644668,1.81071629 C12.9781988,2.53288122 13.2327423,3.39942832 13.2327423,4.40667339 C13.2327423,5.44599634 12.975123,6.27760714 12.4563691,6.90944588 C12.1678029,7.26369988 11.7415133,7.58593954 11.1771865,7.87680006 C12.0319627,8.19344991 12.6805306,8.69208609 13.1139762,9.37867952 Z M3.87445835,6.7022419 L7.4294035,6.7022419 C8.15995252,6.7022419 8.75051835,6.56173448 9.20536954,6.28084669 C9.65990686,6.00040354 9.88670473,5.50189441 9.88670473,4.78614505 C9.88670473,3.99537795 9.5864,3.47050779 8.98434676,3.21788663 C8.46684839,3.0423794 7.80472165,2.95198969 7.0012935,2.95198969 L3.87445835,2.95198969 L3.87445835,6.7022419 Z M10.2290044,11.6260359 C10.2290044,10.7429735 9.87232978,10.1324777 9.16042426,9.80490229 C8.76231962,9.61872361 8.20062925,9.52356985 7.48043773,9.51677316 L3.87445835,9.51677316 L3.87445835,14.0471845 L7.42463278,14.0471845 C8.15398911,14.0471845 8.71850426,13.9505698 9.12589926,13.7490192 C9.86059128,13.3784404 10.2290044,12.6731719 10.2290044,11.6260359 Z M26.8930296,8.8604155 C26.9747596,9.41660128 27.0117328,10.2235661 26.9967301,11.2783246 L18.2350382,11.2783246 C18.2833732,12.5021111 18.7008746,13.3579233 19.4926898,13.8476666 C19.970202,14.1547883 20.5491548,14.3047603 21.2271003,14.3047603 C21.9419561,14.3047603 22.5246126,14.1218847 22.9731238,13.7459702 C23.217498,13.5467063 23.4330595,13.2654374 23.6194318,12.9105481 L26.8308846,12.9105481 C26.7467691,13.6333483 26.3600891,14.3664387 25.665195,15.1114075 C24.5885799,16.2954938 23.0786447,16.8892202 21.1394696,16.8892202 C19.5375096,16.8892202 18.1256881,16.3884878 16.9002389,15.3906438 C15.6788699,14.3893061 15.0654548,12.7653402 15.0654548,10.5125845 C15.0654548,8.4000822 15.61616,6.78316706 16.7212739,5.65771027 C17.830468,4.53015731 19.2619373,3.96895341 21.0264159,3.96895341 C22.0722723,3.96895341 23.0150559,4.15811755 23.8561477,4.53841498 C24.6946031,4.91909352 25.3875512,5.51821918 25.9332973,6.34163584 C26.4271931,7.06678623 26.7448231,7.90525726 26.8930296,8.8604155 Z M23.7319833,9.17763704 C23.6731024,8.33141651 23.3938894,7.69093898 22.8911426,7.253219 C22.3925388,6.81429212 21.769645,6.59393939 21.0264159,6.59393939 C20.2175265,6.59393939 19.5929379,6.82947353 19.1491347,7.29241116 C18.7023184,7.75439599 18.424298,8.38248702 18.3103655,9.17770056 L23.7319833,9.17770056 L23.7319833,9.17763704 Z" id="Behance"></path>
            </g>
        </g>
    </g>
</svg>